Coordinates
version=1
nRows=5
nColumns=40
inDegrees=yes

Units are S.I. units (second, meters, Newtons, ...)
Angles are in degrees.

endheader
time	pelvis_tilt	pelvis_list	pelvis_rotation	pelvis_tx	pelvis_ty	pelvis_tz	hip_flexion_r	hip_adduction_r	hip_rotation_r	knee_angle_r	knee_angle_r_beta	ankle_angle_r	subtalar_angle_r	mtp_angle_r	hip_flexion_l	hip_adduction_l	hip_rotation_l	knee_angle_l	knee_angle_l_beta	ankle_angle_l	subtalar_angle_l	mtp_angle_l	lumbar_extension	lumbar_bending	lumbar_rotation	arm_flex_r	arm_add_r	arm_rot_r	elbow_flex_r	pro_sup_r	wrist_flex_r	wrist_dev_r	arm_flex_l	arm_add_l	arm_rot_l	elbow_flex_l	pro_sup_l	wrist_flex_l	wrist_dev_l
      6.86942857	     -5.65565977	     -4.96245987	      9.63158659	      0.93171406	      0.92191452	      0.48913444	      3.52525388	      3.98906704	    -17.56095059	     11.34033101	     11.34033101	     15.89831457	     -2.21024620	     -5.38673711	     27.97443824	     -4.81516885	     -0.82071940	     13.05987265	     13.05987265	      0.45810149	     -4.07737771	     -4.88840543	     -6.74947054	      2.89310021	      2.49875968	     50.36253892	    -17.24622276	    -10.66451989	     73.99113634	     45.00390037	      0.00000000	      0.00000000	    -16.64994444	     -7.23072601	      6.10623585	     27.13628185	     44.43140739	      0.00000000	      0.00000000
      6.88885714	     -5.71821458	     -5.08188020	      9.74094310	      0.93299590	      0.92096871	      0.48566901	      2.88433440	      4.03934896	    -17.55152363	     10.97231002	     10.97231002	     16.21850628	     -2.13668448	     -5.28785464	     28.09701729	     -4.78756894	     -0.93475519	     14.02467810	     14.02467810	      0.22180778	     -5.18073341	     -5.18828591	     -6.55607214	      2.73378150	      2.43128223	     51.47456526	    -17.04872129	    -10.62715253	     75.09430022	     44.97639653	      0.00000000	      0.00000000	    -16.10292431	     -7.47134035	      5.98621964	     27.39888902	     44.47613719	      0.00000000	      0.00000000
      6.90828571	     -5.80491098	     -5.11795107	      9.76780936	      0.93447200	      0.92016533	      0.48211701	      2.25801431	      3.98685469	    -17.46059841	     10.64012140	     10.64012140	     16.64479016	     -2.01825887	     -4.72301077	     28.10361455	     -4.63390171	     -0.74702067	     14.80617881	     14.80617881	     -0.37469911	     -6.85262589	     -5.89666618	     -6.41815066	      2.45416077	      2.71831488	     51.80249768	    -17.30707014	    -10.71770467	     77.59481416	     44.92582428	      0.00000000	      0.00000000	    -15.40699617	     -7.73704061	      5.12328397	     28.25637307	     44.68951565	      0.00000000	      0.00000000
      6.92771429	     -5.84000765	     -5.08904095	      9.73626490	      0.93602851	      0.91955431	      0.47855603	      1.61256235	      3.84717866	    -17.32844980	     10.39822755	     10.39822755	     16.90509731	     -1.92960789	     -4.60459387	     28.18193538	     -4.50360449	     -0.82757105	     15.92920610	     15.92920610	     -0.34261750	     -7.70266486	     -6.04440058	     -6.28102609	      2.12360288	      2.74379346	     52.63574470	    -17.10093407	    -10.65220795	     78.25657507	     44.90904685	      0.00000000	      0.00000000	    -14.52606623	     -8.04923002	      4.92127143	     28.59251324	     44.74393201	      0.00000000	      0.00000000
      6.94714286	     -5.94632103	     -5.11625993	      9.66429522	      0.93751997	      0.91911452	      0.47510377	      1.07995421	      3.76356525	    -17.21197223	     10.19579378	     10.19579378	     17.38360377	     -1.81649381	     -3.43536248	     28.34918807	     -4.38949154	     -0.63574457	     17.05462421	     17.05462421	     -0.06318173	     -8.61363451	     -5.64247369	     -6.17086722	      1.79447158	      3.12967885	     52.53581139	    -17.37487198	    -10.73966423	     80.64181591	     44.87014627	      0.00000000	      0.00000000	    -13.42986337	     -8.18587070	      2.98930597	     29.53273073	     45.12106097	      0.00000000	      0.00000000
